<?xml version="1.0" encoding="utf-8"?>
<svg viewBox="0 0 500 500" xmlns="http://www.w3.org/2000/svg" xmlns:bx="https://boxy-svg.com">
  <rect width="361.669" height="361.669" style="fill: rgb(81, 81, 81);" rx="20.851" ry="20.851" x="69.165" y="69.165" transform="matrix(0.866025, 0.5, -0.5, 0.866025, 158.493332, -91.506172)"/>
  <rect width="333.38" height="333.852" rx="10.221" ry="10.221" style="fill: rgb(235, 235, 235);" x="83.31" y="83.074" transform="matrix(0.866025, 0.5, -0.5, 0.866025, 158.493332, -91.506172)"/>
  <rect x="99.729" y="323.064" width="76.692" height="76.692" style="fill: rgb(216, 216, 216);" transform="matrix(0.866025, 0.5, -0.5, 0.866025, 158.493332, -91.506172)"/>
  <rect x="181.423" y="323.064" width="76.692" height="76.692" style="fill: rgb(216, 216, 216);" transform="matrix(0.866025, 0.5, -0.5, 0.866025, 158.493332, -91.506172)"/>
  <rect x="99.729" y="240.537" width="76.692" height="76.692" style="fill: rgb(216, 216, 216);" transform="matrix(0.866025, 0.5, -0.5, 0.866025, 158.493332, -91.506172)"/>
  <path d="M 146.621 211.053 L 170.612 211.053 L 170.612 227.045 L 146.621 227.045 L 146.621 251.036 L 130.629 251.036 L 130.629 227.045 L 106.643 227.045 L 106.643 211.053 L 130.629 211.053 L 130.629 187.067 L 146.621 187.067 L 146.621 211.053 Z" style="fill: rgb(51, 51, 51); white-space: pre;" transform="matrix(0.866025, 0.5, -0.5, 0.866025, 128.098307, -39.966413)"/>
  <path style="fill: rgb(51, 51, 51);" d="M 93.307 83.074 H 407.137 A 9.553 9.553 0 0 1 416.69 92.627 V 220.438 H 83.31 V 93.071 A 9.997 9.997 0 0 1 93.307 83.074 Z" transform="matrix(0.866025, 0.5, -0.5, 0.866025, 158.493332, -91.506172)" bx:shape="rect 83.31 83.074 333.38 137.364 9.997 9.553 0 0 1@165b8a73"/>
  <rect x="282.535" y="331.06" width="110.181" height="34.226" style="fill: rgb(244, 145, 61);" transform="matrix(0.866025, 0.5, -0.5, 0.866025, 158.493332, -91.506172)"/>
  <rect x="282.535" y="278.331" width="110.181" height="34.226" style="fill: rgb(244, 145, 61);" transform="matrix(0.866025, 0.5, -0.5, 0.866025, 158.493332, -91.506172)"/>
  <rect x="181.423" y="240.537" width="76.692" height="76.692" style="fill: rgb(184, 184, 184);" transform="matrix(0.866025, 0.5, -0.5, 0.866025, 158.493332, -91.506172)"/>
  <rect x="187.162" y="270.558" width="65.215" height="16.651" style="fill: rgb(51, 51, 51);" transform="matrix(0.866025, 0.5, -0.5, 0.866025, 158.493332, -91.506172)"/>
  <path d="M 177.329 322.177 L 201.32 322.177 L 201.32 338.169 L 177.329 338.169 L 177.329 362.16 L 161.337 362.16 L 161.337 338.169 L 137.351 338.169 L 137.351 322.177 L 161.337 322.177 L 161.337 298.191 L 177.329 298.191 L 177.329 322.177 Z" style="fill: rgb(51, 51, 51); white-space: pre;" transform="matrix(0.258819, 0.965926, -0.965926, 0.258819, 444.433303, 81.154267)"/>
  <rect x="192.437" y="358.65" width="65.215" height="16.651" style="fill: rgb(51, 51, 51);" transform="matrix(0.965926, -0.258819, 0.258819, 0.965926, -214.991837, -5.703831)"/>
</svg>